<svg width="224" height="224" viewBox="0 0 224 224" fill="none" xmlns="http://www.w3.org/2000/svg">
<g clip-path="url(#clip0_1134_327)">
<rect width="223.52" height="223.52" rx="111.76" fill="url(#paint0_linear_1134_327)"/>
<mask id="mask0_1134_327" style="mask-type:alpha" maskUnits="userSpaceOnUse" x="-68" y="104" width="375" height="140">
<path d="M-66.1997 134.539H-39.0373V153.234V154.074L-38.1986 154.113L-16.5443 155.13L-15.623 155.173V154.251V147.851V105.598H24.26V154.251V155.131H25.14H42.0748H42.9548V154.251V118.399H91.9993V178.182V179.062H92.8793H125.314V211.019V211.899H126.194H162.284H163.164V211.019V134.539H172.834H173.714V133.659V122.295H182.273H183.153V121.415V108.938H188.056V121.415V122.295H188.936H197.495V133.659V134.539H198.375H205.823V169.278V170.158H206.703H236.686H237.566V169.278V155.131H272.222H273.102V154.251V125.507H305.361V153.955C264.224 208.071 196.318 244.635 126.215 242.975L126.204 242.975H126.194C66.4784 242.975 9.77238 219.598 -37.5254 172.197C-48.3383 160.715 -57.9621 148.096 -66.1997 134.539Z" fill="#C4C4C4" stroke="black" stroke-width="1.76"/>
</mask>
<g mask="url(#mask0_1134_327)">
<rect x="-77.5781" y="109.171" width="394.22" height="170.303" fill="#13134E"/>
<rect x="2.375" y="112.51" width="3.33144" height="3.33928" fill="#FFE896"/>
<rect x="7.92188" y="112.51" width="3.33144" height="3.33928" fill="#FFE896"/>
<rect x="2.375" y="125.867" width="3.33144" height="3.33928" fill="#FFE896"/>
<rect x="7.92188" y="125.867" width="3.33144" height="3.33928" fill="#FFE896"/>
<rect x="1.26172" y="147.016" width="3.33144" height="3.33928" fill="#FFE896"/>
<rect x="6.8125" y="147.016" width="3.33144" height="3.33928" fill="#FFE896"/>
<rect x="85.6602" y="128.093" width="3.33144" height="3.33928" fill="#F5C34C"/>
<rect x="80.1094" y="135.885" width="3.33144" height="3.33928" fill="#F5C34C"/>
<rect x="69.0039" y="135.885" width="3.33144" height="3.33928" fill="#F5C34C"/>
<rect x="80.1094" y="143.677" width="3.33144" height="3.33928" fill="#F5C34C"/>
<rect x="69.0039" y="150.355" width="3.33144" height="3.33928" fill="#F5C34C"/>
<rect x="69.0039" y="158.147" width="3.33144" height="3.33928" fill="#F5C34C"/>
<rect x="74.5586" y="158.147" width="3.33144" height="3.33928" fill="#F5C34C"/>
<rect x="85.6602" y="158.147" width="3.33144" height="3.33928" fill="#F5C34C"/>
<rect x="130.078" y="221.593" width="3.33144" height="3.33928" fill="#F5C34C"/>
<rect x="216.699" y="204.897" width="3.33144" height="3.33928" fill="#F5C34C"/>
<rect x="208.926" y="194.879" width="3.33144" height="3.33928" fill="#F5C34C"/>
<rect x="216.699" y="221.593" width="3.33144" height="3.33928" fill="#F5C34C"/>
<rect x="74.5586" y="164.825" width="3.33144" height="3.33928" fill="#F5C34C"/>
<rect x="69.0039" y="172.617" width="3.33144" height="3.33928" fill="#F5C34C"/>
<rect x="69.0039" y="179.295" width="3.33144" height="3.33928" fill="#F5C34C"/>
<rect x="69.0039" y="194.879" width="3.33144" height="3.33928" fill="#F5C34C"/>
<rect x="69.0039" y="209.349" width="3.33144" height="3.33928" fill="#F5C34C"/>
<rect x="69.0039" y="218.254" width="3.33144" height="3.33928" fill="#F5C34C"/>
<rect x="1.26172" y="161.486" width="3.33144" height="3.33928" fill="#FFE896"/>
<rect x="6.8125" y="161.486" width="3.33144" height="3.33928" fill="#FFE896"/>
<rect x="1.26172" y="168.165" width="3.33144" height="3.33928" fill="#FFE896"/>
<rect x="7.92188" y="175.956" width="3.33144" height="3.33928" fill="#FFE896"/>
<rect x="1.26172" y="183.748" width="3.33144" height="3.33928" fill="#FFE896"/>
<rect x="1.26172" y="198.218" width="3.33144" height="3.33928" fill="#FFE896"/>
<rect x="6.8125" y="198.218" width="3.33144" height="3.33928" fill="#FFE896"/>
<rect x="29.0234" y="163.712" width="5.5524" height="5.56546" fill="#F5C34C"/>
<rect x="29.0234" y="173.73" width="5.5524" height="5.56546" fill="#F5C34C"/>
<rect x="37.9102" y="173.73" width="5.5524" height="5.56546" fill="#F5C34C"/>
<rect x="53.4531" y="173.73" width="5.5524" height="5.56546" fill="#F5C34C"/>
<rect x="45.6836" y="182.635" width="5.5524" height="5.56546" fill="#F5C34C"/>
<rect x="37.9102" y="191.54" width="5.5524" height="5.56546" fill="#F5C34C"/>
<rect x="21.2539" y="213.801" width="5.5524" height="5.56546" fill="#F5C34C"/>
<rect x="45.6836" y="200.444" width="5.5524" height="5.56546" fill="#F5C34C"/>
<rect x="53.4531" y="191.54" width="5.5524" height="5.56546" fill="#F5C34C"/>
<rect x="90.0977" y="187.087" width="5.5524" height="5.56546" fill="#F5C34C"/>
<rect x="103.422" y="187.087" width="5.5524" height="5.56546" fill="#F5C34C"/>
<rect x="118.984" y="187.087" width="5.5524" height="5.56546" fill="#F5C34C"/>
<rect x="103.422" y="194.879" width="5.5524" height="5.56546" fill="#F5C34C"/>
<rect x="110.086" y="202.67" width="5.5524" height="5.56546" fill="#F5C34C"/>
<rect x="118.984" y="211.575" width="5.5524" height="5.56546" fill="#F5C34C"/>
<rect x="181.168" y="184.861" width="5.5524" height="5.56546" fill="#F5C34C"/>
<rect x="181.168" y="149.242" width="5.5524" height="5.56546" fill="#F5C34C"/>
<rect x="181.168" y="132.545" width="5.5524" height="5.56546" fill="#F5C34C"/>
<rect x="188.938" y="140.337" width="5.5524" height="5.56546" fill="#F5C34C"/>
<rect x="188.938" y="168.165" width="5.5524" height="5.56546" fill="#F5C34C"/>
<rect x="196.707" y="168.165" width="5.5524" height="5.56546" fill="#F5C34C"/>
<rect x="196.707" y="194.879" width="5.5524" height="5.56546" fill="#F5C34C"/>
<rect x="110.086" y="219.367" width="5.5524" height="5.56546" fill="#F5C34C"/>
<rect x="53.4531" y="209.349" width="5.5524" height="5.56546" fill="#F5C34C"/>
<rect x="53.4531" y="218.254" width="5.5524" height="5.56546" fill="#F5C34C"/>
<rect x="45.6836" y="218.254" width="5.5524" height="5.56546" fill="#F5C34C"/>
<rect x="53.4531" y="154.808" width="5.5524" height="5.56546" fill="#F5C34C"/>
<rect x="45.6836" y="154.808" width="5.5524" height="5.56546" fill="#F5C34C"/>
<rect x="45.6836" y="145.903" width="5.5524" height="5.56546" fill="#F5C34C"/>
<rect x="45.6836" y="129.206" width="5.5524" height="5.56546" fill="#F5C34C"/>
<rect x="53.4531" y="129.206" width="5.5524" height="5.56546" fill="#F5C34C"/>
<rect x="78.9961" y="198.218" width="7.77336" height="12.244" fill="#FFE896"/>
<rect x="78.9961" y="216.028" width="7.77336" height="12.244" fill="#FFE896"/>
<rect x="90.0977" y="216.028" width="7.77336" height="12.244" fill="#FFE896"/>
<rect x="152.297" y="220.48" width="7.77336" height="7.79165" fill="#F5C34C"/>
<rect x="166.73" y="220.48" width="7.77336" height="7.79165" fill="#FFE896"/>
<rect x="166.73" y="208.236" width="7.77336" height="7.79165" fill="#FFE896"/>
<rect x="166.73" y="195.992" width="7.77336" height="7.79165" fill="#FFE896"/>
<rect x="166.73" y="183.748" width="7.77336" height="7.79165" fill="#FFE896"/>
<rect x="166.73" y="172.311" width="7.77336" height="7.79165" fill="#FFE896"/>
<rect x="186.711" y="216.028" width="7.77336" height="7.79165" fill="#F5C34C"/>
<rect x="202.266" y="216.028" width="7.77336" height="7.79165" fill="#F5C34C"/>
<rect x="-48.6992" y="181.522" width="358.685" height="129.119" fill="url(#paint1_linear_1134_327)"/>
</g>
<path d="M181.264 180.147L52.5664 120.606H98.869H131.823H148.604L181.264 180.147Z" fill="#942323"/>
<path d="M52.5664 120.606V119.863L52.2543 121.281L52.5664 120.606ZM181.264 180.147L180.952 180.822L183.002 181.771L181.916 179.79L181.264 180.147ZM148.604 120.606L149.255 120.249L149.044 119.863H148.604V120.606ZM52.2543 121.281L180.952 180.822L181.576 179.473L52.8786 119.932L52.2543 121.281ZM181.916 179.79L149.255 120.249L147.952 120.964L180.612 180.505L181.916 179.79ZM148.604 119.863H131.823V121.35H148.604V119.863ZM181.836 179.673L132.395 120.132L131.251 121.081L180.692 180.622L181.836 179.673ZM131.823 119.863H98.869V121.35H131.823V119.863ZM98.869 119.863H52.5664V121.35H98.869V119.863ZM181.699 179.545L99.3044 120.004L98.4336 121.209L180.828 180.75L181.699 179.545Z" fill="#13134E"/>
<path d="M148.719 59.9561L182.372 182.367L148.93 120.489L148.879 105.788L148.827 91.0874L148.763 72.7113L148.719 59.9561Z" fill="#D74646"/>
<path d="M182.372 182.367L148.719 59.9561L148.763 72.7113M182.372 182.367L148.763 72.7113M182.372 182.367L148.827 91.0874M182.372 182.367L148.879 105.788M182.372 182.367L148.93 120.489L148.879 105.788M148.763 72.7113L148.827 91.0874M148.827 91.0874L148.879 105.788" stroke="#13134E" stroke-width="1.48685"/>
<path d="M147.548 68.552H52.8555V119.413H147.548V68.552Z" fill="#F5C34C" stroke="#FFE896" stroke-width="1.76"/>
<path d="M147.548 60.6953H52.8555V68.5519H147.548V60.6953Z" fill="#D74646" stroke="#FFE896" stroke-width="1.76"/>
<ellipse cx="57.3949" cy="64.4167" rx="1.65272" ry="1.65401" fill="#FFE896"/>
<ellipse cx="68.5629" cy="64.4167" rx="1.65272" ry="1.65401" fill="#FFE896"/>
<ellipse cx="63.1879" cy="64.4167" rx="1.65272" ry="1.65401" fill="#FFE896"/>
<path d="M71.0469 92.1215L86.2502 80.1299L89.241 83.2581L78.5239 92.1215L89.241 100.463L86.2502 104.113L71.0469 92.1215Z" fill="#D74646"/>
<path d="M131.828 92.5345L116.279 80.543L113.221 83.6712L124.181 92.5345L113.221 100.876L116.279 104.526L131.828 92.5345Z" fill="#D74646"/>
<path d="M91.3086 104.94L105.074 78.4761H110.33L97.065 104.94H91.3086Z" fill="#D74646"/>
</g>
<defs>
<linearGradient id="paint0_linear_1134_327" x1="112.035" y1="86.4973" x2="112.035" y2="294.365" gradientUnits="userSpaceOnUse">
<stop stop-color="#13134E"/>
<stop offset="1" stop-color="#01B0FC"/>
</linearGradient>
<linearGradient id="paint1_linear_1134_327" x1="131.198" y1="325.667" x2="131.199" y2="170.391" gradientUnits="userSpaceOnUse">
<stop stop-color="#13134E"/>
<stop offset="1" stop-color="#13134E" stop-opacity="0"/>
</linearGradient>
<clipPath id="clip0_1134_327">
<rect width="223.52" height="223.52" rx="111.76" fill="white"/>
</clipPath>
</defs>
</svg>
