<svg width="407" height="407" viewBox="0 0 407 407" fill="none" xmlns="http://www.w3.org/2000/svg">
<g clip-path="url(#clip0_1023_331)">
<rect width="407" height="407" rx="203.5" fill="white"/>
<circle cx="203.5" cy="203.381" r="203.5" fill="url(#paint0_linear_1023_331)"/>
<path d="M327 328.382L153 247.882H215.601H260.156H282.843L327 328.382Z" fill="#4F8C58"/>
<path d="M153 247.882V247.037L152.645 248.648L153 247.882ZM327 328.382L326.645 329.148L328.975 330.226L327.741 327.975L327 328.382ZM282.843 247.882L283.584 247.475L283.343 247.037H282.843V247.882ZM152.645 248.648L326.645 329.148L327.355 327.615L153.355 247.115L152.645 248.648ZM327.741 327.975L283.584 247.475L282.102 248.288L326.259 328.788L327.741 327.975ZM282.843 247.037H260.156V248.726H282.843V247.037ZM327.65 327.842L260.806 247.342L259.506 248.421L326.35 328.921L327.65 327.842ZM260.156 247.037H215.601V248.726H260.156V247.037ZM215.601 247.037H153V248.726H215.601V247.037ZM327.495 327.697L216.096 247.197L215.107 248.566L326.505 329.066L327.495 327.697Z" fill="#13134E"/>
<path d="M283 165.882L328.5 331.382L283.286 247.723L283.216 227.847L283.147 207.972L283.06 183.127L283 165.882Z" fill="#70C87E"/>
<path d="M328.5 331.382L283 165.882L283.06 183.127M328.5 331.382L283.06 183.127M328.5 331.382L283.147 207.972M328.5 331.382L283.216 227.847M328.5 331.382L283.286 247.723L283.216 227.847M283.06 183.127L283.147 207.972M283.147 207.972L283.216 227.847" stroke="#13134E" stroke-width="1.6896"/>
<path d="M281.41 177.504H153.385V246.268H281.41V177.504Z" fill="#F5C34C" stroke="#FFE896" stroke-width="2"/>
<path d="M281.41 166.881H153.385V177.503H281.41V166.881Z" fill="#4F8C58" stroke="#FFE896" stroke-width="2"/>
<ellipse cx="159.533" cy="171.913" rx="2.2345" ry="2.23624" fill="#FFE896"/>
<ellipse cx="174.628" cy="171.913" rx="2.2345" ry="2.23624" fill="#FFE896"/>
<ellipse cx="167.36" cy="171.913" rx="2.2345" ry="2.23624" fill="#FFE896"/>
<path d="M177.984 209.37L198.539 193.157L202.583 197.386L188.093 209.37L202.583 220.648L198.539 225.582L177.984 209.37Z" fill="#4F8C58"/>
<path d="M260.166 209.928L239.143 193.715L235.008 197.945L249.827 209.928L235.008 221.206L239.143 226.141L260.166 209.928Z" fill="#4F8C58"/>
<path d="M205.378 226.701L223.989 190.921H231.095L213.16 226.701H205.378Z" fill="#4F8C58"/>
<mask id="mask0_1023_331" style="mask-type:alpha" maskUnits="userSpaceOnUse" x="28" y="282" width="337" height="126">
<path d="M30.7722 309.881H54.5928V326.467V327.422L55.5458 327.466L75.0001 328.38L76.047 328.429V327.381V321.631V283.881H111.459V327.381V328.381H112.459H127.673H128.673V327.381V295.381H172.316V348.881V349.881H173.316H202.245V378.381V379.381H203.245H235.669H236.669V378.381V309.881H245.147H246.147V308.881V298.881H253.627H254.627V297.881V286.881H258.613V297.881V298.881H259.613H267.093V308.881V309.881H268.093H274.575V340.881V341.881H275.575H302.512H303.512V340.881V328.381H334.437H335.437V327.381V301.767H364V327.044C327.074 375.584 266.152 408.37 203.269 406.881L203.257 406.881H203.245C149.657 406.881 98.7656 385.905 56.3108 343.358C46.692 333.144 38.1217 321.927 30.7722 309.881Z" fill="#C4C4C4" stroke="black" stroke-width="2"/>
</mask>
<g mask="url(#mask0_1023_331)">
<rect x="20.1763" y="286.881" width="354.167" height="153" fill="#13134E"/>
<rect x="50.1058" y="333.881" width="4.98826" height="5" fill="#F5C34C"/>
<rect x="64.073" y="333.881" width="4.98826" height="5" fill="#F5C34C"/>
<rect x="71.0565" y="340.881" width="4.98826" height="5" fill="#F5C34C"/>
<rect x="71.0565" y="348.881" width="4.98826" height="5" fill="#F5C34C"/>
<rect x="64.073" y="348.881" width="4.98826" height="5" fill="#F5C34C"/>
<rect x="92.0073" y="289.881" width="2.99296" height="3" fill="#FFE896"/>
<rect x="96.9955" y="289.881" width="2.99296" height="3" fill="#FFE896"/>
<rect x="86.0214" y="294.881" width="2.99296" height="3" fill="#FFE896"/>
<rect x="81.0331" y="294.881" width="2.99296" height="3" fill="#FFE896"/>
<rect x="81.0331" y="301.881" width="2.99296" height="3" fill="#FFE896"/>
<rect x="92.0073" y="301.881" width="2.99296" height="3" fill="#FFE896"/>
<rect x="96.9955" y="301.881" width="2.99296" height="3" fill="#FFE896"/>
<rect x="86.0214" y="307.881" width="2.99296" height="3" fill="#FFE896"/>
<rect x="81.0331" y="314.881" width="2.99296" height="3" fill="#FFE896"/>
<rect x="81.0331" y="320.881" width="2.99296" height="3" fill="#FFE896"/>
<rect x="86.0214" y="320.881" width="2.99296" height="3" fill="#FFE896"/>
<rect x="91.0096" y="320.881" width="2.99296" height="3" fill="#FFE896"/>
<rect x="95.9979" y="320.881" width="2.99296" height="3" fill="#FFE896"/>
<rect x="166.831" y="303.881" width="2.99296" height="3" fill="#F5C34C"/>
<rect x="161.843" y="310.881" width="2.99296" height="3" fill="#F5C34C"/>
<rect x="151.866" y="310.881" width="2.99296" height="3" fill="#F5C34C"/>
<rect x="161.843" y="317.881" width="2.99296" height="3" fill="#F5C34C"/>
<rect x="151.866" y="323.881" width="2.99296" height="3" fill="#F5C34C"/>
<rect x="151.866" y="330.881" width="2.99296" height="3" fill="#F5C34C"/>
<rect x="156.855" y="330.881" width="2.99296" height="3" fill="#F5C34C"/>
<rect x="166.831" y="330.881" width="2.99296" height="3" fill="#F5C34C"/>
<rect x="206.737" y="387.881" width="2.99296" height="3" fill="#F5C34C"/>
<rect x="284.554" y="372.881" width="2.99296" height="3" fill="#F5C34C"/>
<rect x="277.571" y="363.881" width="2.99296" height="3" fill="#F5C34C"/>
<rect x="284.554" y="387.881" width="2.99296" height="3" fill="#F5C34C"/>
<rect x="206.737" y="394.881" width="2.99296" height="3" fill="#F5C34C"/>
<rect x="156.855" y="336.881" width="2.99296" height="3" fill="#F5C34C"/>
<rect x="151.866" y="343.881" width="2.99296" height="3" fill="#F5C34C"/>
<rect x="151.866" y="349.881" width="2.99296" height="3" fill="#F5C34C"/>
<rect x="151.866" y="363.881" width="2.99296" height="3" fill="#F5C34C"/>
<rect x="151.866" y="376.881" width="2.99296" height="3" fill="#F5C34C"/>
<rect x="151.866" y="384.881" width="2.99296" height="3" fill="#F5C34C"/>
<rect x="81.0331" y="333.881" width="2.99296" height="3" fill="#FFE896"/>
<rect x="91.0096" y="333.881" width="2.99296" height="3" fill="#FFE896"/>
<rect x="95.9979" y="333.881" width="2.99296" height="3" fill="#FFE896"/>
<rect x="91.0096" y="339.881" width="2.99296" height="3" fill="#FFE896"/>
<rect x="86.0214" y="339.881" width="2.99296" height="3" fill="#FFE896"/>
<rect x="81.0331" y="346.881" width="2.99296" height="3" fill="#FFE896"/>
<rect x="96.9955" y="346.881" width="2.99296" height="3" fill="#FFE896"/>
<rect x="91.0096" y="353.881" width="2.99296" height="3" fill="#FFE896"/>
<rect x="86.0214" y="353.881" width="2.99296" height="3" fill="#FFE896"/>
<rect x="81.0331" y="359.881" width="2.99296" height="3" fill="#FFE896"/>
<rect x="91.0096" y="366.881" width="2.99296" height="3" fill="#FFE896"/>
<rect x="95.9979" y="366.881" width="2.99296" height="3" fill="#FFE896"/>
<rect x="115.951" y="335.881" width="4.98826" height="5" fill="#F5C34C"/>
<rect x="115.951" y="344.881" width="4.98826" height="5" fill="#F5C34C"/>
<rect x="123.932" y="344.881" width="4.98826" height="5" fill="#F5C34C"/>
<rect x="137.899" y="344.881" width="4.98826" height="5" fill="#F5C34C"/>
<rect x="130.916" y="352.881" width="4.98826" height="5" fill="#F5C34C"/>
<rect x="123.932" y="360.881" width="4.98826" height="5" fill="#F5C34C"/>
<rect x="108.967" y="380.881" width="4.98826" height="5" fill="#F5C34C"/>
<rect x="130.916" y="368.881" width="4.98826" height="5" fill="#F5C34C"/>
<rect x="137.899" y="360.881" width="4.98826" height="5" fill="#F5C34C"/>
<rect x="170.822" y="356.881" width="4.98826" height="5" fill="#F5C34C"/>
<rect x="182.794" y="356.881" width="4.98826" height="5" fill="#F5C34C"/>
<rect x="196.761" y="356.881" width="4.98826" height="5" fill="#F5C34C"/>
<rect x="182.794" y="363.881" width="4.98826" height="5" fill="#F5C34C"/>
<rect x="188.78" y="370.881" width="4.98826" height="5" fill="#F5C34C"/>
<rect x="196.761" y="378.881" width="4.98826" height="5" fill="#F5C34C"/>
<rect x="252.629" y="354.881" width="4.98826" height="5" fill="#F5C34C"/>
<rect x="252.629" y="322.881" width="4.98826" height="5" fill="#F5C34C"/>
<rect x="252.629" y="307.881" width="4.98826" height="5" fill="#F5C34C"/>
<rect x="259.613" y="314.881" width="4.98826" height="5" fill="#F5C34C"/>
<rect x="259.613" y="339.881" width="4.98826" height="5" fill="#F5C34C"/>
<rect x="266.596" y="339.881" width="4.98826" height="5" fill="#F5C34C"/>
<rect x="357.633" y="310.267" width="4.98826" height="5" fill="#F5C34C"/>
<rect x="348.633" y="327.267" width="4.98826" height="5" fill="#F5C34C"/>
<rect x="355.616" y="327.267" width="4.98826" height="5" fill="#F5C34C"/>
<rect x="266.596" y="363.881" width="4.98826" height="5" fill="#F5C34C"/>
<rect x="322.465" y="317.881" width="4.98826" height="5" fill="#FFE896"/>
<rect x="322.633" y="328.267" width="4.98826" height="5" fill="#FFE896"/>
<rect x="337.633" y="303.267" width="4.98826" height="5" fill="#FFE896"/>
<rect x="322.465" y="342.881" width="4.98826" height="5" fill="#FFE896"/>
<rect x="322.465" y="351.881" width="4.98826" height="5" fill="#FFE896"/>
<rect x="322.465" y="360.881" width="4.98826" height="5" fill="#FFE896"/>
<rect x="330.446" y="342.881" width="4.98826" height="5" fill="#FFE896"/>
<rect x="337.43" y="342.881" width="4.98826" height="5" fill="#FFE896"/>
<rect x="344.413" y="342.881" width="4.98826" height="5" fill="#FFE896"/>
<rect x="344.413" y="335.881" width="4.98826" height="5" fill="#FFE896"/>
<rect x="337.43" y="350.881" width="4.98826" height="5" fill="#FFE896"/>
<rect x="188.78" y="385.881" width="4.98826" height="5" fill="#F5C34C"/>
<rect x="182.794" y="393.881" width="4.98826" height="5" fill="#F5C34C"/>
<rect x="196.761" y="393.881" width="4.98826" height="5" fill="#F5C34C"/>
<rect x="182.794" y="400.881" width="4.98826" height="5" fill="#F5C34C"/>
<rect x="137.899" y="376.881" width="4.98826" height="5" fill="#F5C34C"/>
<rect x="137.899" y="384.881" width="4.98826" height="5" fill="#F5C34C"/>
<rect x="130.916" y="384.881" width="4.98826" height="5" fill="#F5C34C"/>
<rect x="137.899" y="392.881" width="4.98826" height="5" fill="#F5C34C"/>
<rect x="137.899" y="327.881" width="4.98826" height="5" fill="#F5C34C"/>
<rect x="130.916" y="327.881" width="4.98826" height="5" fill="#F5C34C"/>
<rect x="130.916" y="319.881" width="4.98826" height="5" fill="#F5C34C"/>
<rect x="130.916" y="304.881" width="4.98826" height="5" fill="#F5C34C"/>
<rect x="137.899" y="304.881" width="4.98826" height="5" fill="#F5C34C"/>
<rect x="160.845" y="366.881" width="6.98357" height="11" fill="#FFE896"/>
<rect x="160.845" y="382.881" width="6.98357" height="11" fill="#FFE896"/>
<rect x="170.822" y="382.881" width="6.98357" height="11" fill="#FFE896"/>
<rect x="226.69" y="386.881" width="6.98357" height="7" fill="#F5C34C"/>
<rect x="239.66" y="386.881" width="6.98357" height="7" fill="#FFE896"/>
<rect x="239.66" y="375.881" width="6.98357" height="7" fill="#FFE896"/>
<rect x="239.66" y="364.881" width="6.98357" height="7" fill="#FFE896"/>
<rect x="239.66" y="353.881" width="6.98357" height="7" fill="#FFE896"/>
<rect x="239.66" y="332.881" width="6.98357" height="7" fill="#FFE896"/>
<rect x="257.618" y="382.881" width="6.98357" height="7" fill="#F5C34C"/>
<rect x="257.618" y="394.881" width="6.98357" height="7" fill="#F5C34C"/>
<rect x="271.585" y="382.881" width="6.98357" height="7" fill="#F5C34C"/>
<rect x="296.526" y="372.881" width="6.98357" height="7" fill="#F5C34C"/>
<rect x="296.526" y="357.881" width="6.98357" height="7" fill="#F5C34C"/>
<rect x="46.1152" y="351.881" width="322.242" height="116" fill="url(#paint1_linear_1023_331)"/>
</g>
<path d="M87.0172 170.879L90.4342 164.373L103.996 168.651L93.4618 158.608L96.8709 152.117L111.005 155.307L99.9065 146.338L103.308 139.862L122.811 156.606L119.283 163.323L103.345 159.747L115.207 171.085L111.678 177.803L87.0172 170.879Z" fill="#FFE896"/>
<path d="M106.414 135.264L120.773 120.288L124.596 124.03L115.607 133.405L118.452 136.191L126.791 127.494L130.442 131.069L122.104 139.765L125.633 143.22L134.883 133.574L138.937 137.542L124.318 152.789L106.414 135.264Z" fill="#FFE896"/>
<path d="M126.217 115.825L137.973 107.35C139.932 105.938 141.779 105.344 143.513 105.568C145.257 105.786 146.638 106.617 147.656 108.059C148.51 109.269 148.868 110.577 148.731 111.982C148.639 112.919 148.231 113.902 147.506 114.93C149.216 114.231 150.718 114.068 152.013 114.44C153.311 114.797 154.42 115.627 155.339 116.93C156.088 117.991 156.517 119.122 156.625 120.322C156.733 121.522 156.536 122.675 156.034 123.782C155.724 124.468 155.087 125.265 154.122 126.171C152.84 127.376 151.967 128.145 151.505 128.478L140.664 136.293L126.217 115.825ZM138.219 119.286L140.95 117.317C141.93 116.611 142.491 115.954 142.633 115.346C142.778 114.721 142.624 114.088 142.171 113.446C141.75 112.85 141.228 112.525 140.603 112.469C139.988 112.407 139.204 112.72 138.252 113.406L135.479 115.404L138.219 119.286ZM143.895 127.328L147.098 125.02C148.179 124.24 148.807 123.5 148.981 122.798C149.149 122.088 149.003 121.406 148.543 120.755C148.116 120.15 147.552 119.826 146.853 119.783C146.155 119.723 145.257 120.09 144.157 120.883L140.968 123.181L143.895 127.328Z" fill="#FFE896"/>
<path d="M150.998 98.0515L161.653 93.7204C163.753 92.8666 165.561 92.4639 167.075 92.5123C168.601 92.5563 169.998 92.9415 171.267 93.6676C172.537 94.3938 173.643 95.3891 174.587 96.6535C175.53 97.9179 176.317 99.3442 176.948 100.932C177.937 103.421 178.42 105.469 178.396 107.077C178.38 108.67 178.055 110.137 177.422 111.476C176.786 112.805 175.953 113.857 174.925 114.631C173.52 115.694 172.18 116.485 170.902 117.004L160.248 121.335L150.998 98.0515ZM160.264 100.409L165.318 113.131L167.076 112.417C168.574 111.807 169.575 111.21 170.078 110.624C170.577 110.028 170.842 109.244 170.872 108.272C170.899 107.29 170.542 105.867 169.802 104.004C168.822 101.536 167.75 100.011 166.586 99.4261C165.422 98.8416 163.911 98.9269 162.053 99.682L160.264 100.409Z" fill="#FFE896"/>
<path d="M178.311 88.3576L198.817 85.1992L199.605 90.4899L186.768 92.4672L187.355 96.4056L199.263 94.5715L200.016 99.6255L188.108 101.46L188.836 106.345L202.044 104.31L202.88 109.922L182.003 113.138L178.311 88.3576Z" fill="#FFE896"/>
<path d="M202.247 84.82L210.304 85.659L214.024 104.174L221.437 86.8185L229.256 87.6327L217.385 111.586L209.039 110.717L202.247 84.82Z" fill="#FFE896"/>
<path d="M33.083 192.564L38.0029 166.223L45.4031 167.651L42.4819 183.291L48.496 184.451L50.9911 171.092L57.9449 172.434L55.4499 185.792L69.5219 188.507L67.5232 199.208L33.083 192.564Z" fill="#FFE896"/>
<path d="M48.4392 138.483L52.3228 128.39L71.7805 136.05C73.7099 136.809 75.418 137.833 76.9049 139.121C78.3826 140.388 79.5179 141.924 80.3108 143.727C81.0945 145.51 81.4741 147.211 81.4494 148.829C81.4206 151.081 80.8763 153.583 79.8166 156.337C79.2037 157.93 78.4222 159.628 77.4721 161.431C76.5278 163.219 75.4856 164.617 74.3457 165.626C73.191 166.628 71.8017 167.418 70.178 167.996C68.56 168.559 67.0309 168.78 65.5908 168.659C63.2723 168.466 61.3116 168.054 59.7087 167.423L40.251 159.763L44.1346 149.67L64.0598 157.514C65.8408 158.215 67.425 158.273 68.8123 157.688C70.1905 157.082 71.2175 155.901 71.8934 154.144C72.5636 152.402 72.5979 150.847 71.9964 149.479C71.3858 148.09 70.1751 147.039 68.3644 146.327L48.4392 138.483Z" fill="#FFE896"/>
<path d="M56.8266 119.477L62.9316 110.521L84.6362 125.617L94.1643 111.64L101.255 116.572L85.6221 139.504L56.8266 119.477Z" fill="#FFE896"/>
<path d="M79.6742 89.0665L87.3663 81.4309L105.797 100.385L117.802 88.4685L123.823 94.6608L104.126 114.213L79.6742 89.0665Z" fill="#FFE896"/>
<path d="M121.21 85.6368L129.983 80.1653C130.96 81.5407 131.955 82.4534 132.968 82.9035C134.612 83.6287 136.347 83.4987 138.171 82.5134C139.533 81.7782 140.411 80.8961 140.806 79.867C141.208 78.8163 141.185 77.8676 140.739 77.021C140.315 76.2168 139.585 75.6867 138.548 75.4307C137.512 75.1748 135.568 75.4543 132.716 76.2694C128.035 77.5827 124.39 77.9375 121.782 77.3339C119.16 76.7379 117.209 75.2265 115.93 72.7997C115.089 71.2053 114.753 69.4563 114.921 67.5527C115.096 65.6274 115.891 63.7662 117.305 61.9691C118.727 60.1503 121.044 58.373 124.258 56.6374C128.202 54.5076 131.596 53.6263 134.44 53.9937C137.291 54.3393 139.761 56.0145 141.85 59.0193L133.14 64.4029C132.165 63.1349 131.124 62.3919 130.017 62.1738C128.924 61.9482 127.704 62.1992 126.357 62.9268C125.248 63.5256 124.54 64.2164 124.231 64.9993C123.915 65.7681 123.936 66.4911 124.293 67.1684C124.553 67.6622 125.019 67.9816 125.691 68.1265C126.356 68.2932 127.623 68.0981 129.493 67.5413C134.138 66.1933 137.604 65.4998 139.891 65.4609C142.185 65.4002 144.1 65.8344 145.635 66.7635C147.185 67.6849 148.406 68.9922 149.299 70.6853C150.348 72.6748 150.768 74.8046 150.558 77.0748C150.349 79.345 149.492 81.4481 147.989 83.384C146.477 85.3058 144.227 87.0739 141.238 88.6883C135.989 91.5229 131.818 92.4701 128.726 91.5297C125.634 90.5894 123.129 88.6251 121.21 85.6368Z" fill="#FFE896"/>
<path d="M142.545 48.1321L172.877 39.2672L175.144 47.2595L164.967 50.2338L171.881 74.6081L161.903 77.5244L154.989 53.1501L144.812 56.1244L142.545 48.1321Z" fill="#FFE896"/>
<path d="M201.551 66.1996L189.247 67.2136L188.001 73.1259L176.96 74.0358L187.39 37.9825L199.17 37.0117L215.017 70.8994L203.714 71.8309L201.551 66.1996ZM198.7 58.8245L193.863 46.5716L190.998 59.4592L198.7 58.8245Z" fill="#FFE896"/>
<path d="M240.762 61.245L249.795 65.3445C248.808 67.9003 247.516 69.9729 245.918 71.5623C244.321 73.1518 242.449 74.2623 240.304 74.8939C238.175 75.5275 235.553 75.6369 232.439 75.2221C228.66 74.7189 225.642 73.7618 223.385 72.351C221.147 70.9264 219.344 68.7151 217.976 65.717C216.609 62.7189 216.215 59.062 216.795 54.7463C217.568 48.992 219.687 44.7767 223.153 42.1005C226.637 39.4105 231.177 38.4383 236.774 39.1837C241.154 39.7669 244.474 41.1102 246.734 43.2134C249.01 45.3188 250.51 48.2863 251.235 52.116L241.465 52.963C241.275 51.8597 241.031 51.0387 240.734 50.5002C240.243 49.5982 239.593 48.8679 238.783 48.3095C237.973 47.751 237.03 47.4002 235.955 47.257C233.52 46.9327 231.523 47.6644 229.963 49.452C228.787 50.7758 227.99 52.9948 227.572 56.1091C227.053 59.9664 227.282 62.6922 228.259 64.2866C229.238 65.8652 230.787 66.7955 232.905 67.0777C234.961 67.3514 236.588 66.9808 237.786 65.9657C239.001 64.9528 239.993 63.3792 240.762 61.245Z" fill="#FFE896"/>
<path d="M262.208 46.8774L272.194 51.0908L267.072 63.3162L282.664 55.509L295.935 61.1084L279.051 68.3448L282.911 93.6825L270.61 88.4924L269.373 72.3116L261.95 75.5416L258.64 83.4418L248.655 79.2283L262.208 46.8774Z" fill="#FFE896"/>
</g>
<defs>
<linearGradient id="paint0_linear_1023_331" x1="204" y1="157.381" x2="204" y2="535.881" gradientUnits="userSpaceOnUse">
<stop stop-color="#13134E"/>
<stop offset="1" stop-color="#01B0FC"/>
</linearGradient>
<linearGradient id="paint1_linear_1023_331" x1="207.735" y1="481.381" x2="207.735" y2="341.881" gradientUnits="userSpaceOnUse">
<stop stop-color="#13134E"/>
<stop offset="1" stop-color="#13134E" stop-opacity="0"/>
</linearGradient>
<clipPath id="clip0_1023_331">
<rect width="407" height="407" rx="203.5" fill="white"/>
</clipPath>
</defs>
</svg>
