<svg width="224" height="224" viewBox="0 0 224 224" fill="none" xmlns="http://www.w3.org/2000/svg">
<g clip-path="url(#clip0_1137_18)">
<rect x="0.480469" width="223.52" height="223.52" rx="111.76" fill="url(#paint0_linear_1137_18)"/>
<mask id="mask0_1137_18" style="mask-type:alpha" maskUnits="userSpaceOnUse" x="-68" y="104" width="375" height="140">
<path d="M126.695 242.975L126.685 242.975H126.674C66.9589 242.975 10.2528 219.598 -37.0449 172.197C-47.8578 160.715 -57.4817 148.096 -65.7193 134.539H-38.5569V153.234V154.074L-37.7182 154.113L-16.0638 155.13L-15.1425 155.173V154.251V147.851V105.598H24.7405V154.251V155.131H25.6205H42.5553H43.4353V154.251V118.399H92.4797V178.182V179.062H93.3597H125.794V211.019V211.899H126.674H162.765H163.645V211.019V134.539H173.314H174.194V133.659V122.295H182.753H183.633V121.415V108.938H188.536V121.415V122.295H189.416H197.975V133.659V134.539H198.855H206.304V169.278V170.158H207.184H237.167H238.047V169.278V155.131H272.702H273.582V154.251V125.507H305.842V153.955C264.704 208.071 196.798 244.635 126.695 242.975Z" fill="#C4C4C4" stroke="black" stroke-width="1.76"/>
</mask>
<g mask="url(#mask0_1137_18)">
<rect x="-77.0977" y="109.171" width="394.22" height="170.303" fill="#13134E"/>
<rect x="2.85547" y="112.51" width="3.33144" height="3.33928" fill="#FFE896"/>
<rect x="8.40234" y="112.51" width="3.33144" height="3.33928" fill="#FFE896"/>
<rect x="2.85547" y="125.867" width="3.33144" height="3.33928" fill="#FFE896"/>
<rect x="8.40234" y="125.867" width="3.33144" height="3.33928" fill="#FFE896"/>
<rect x="1.74219" y="147.016" width="3.33144" height="3.33928" fill="#FFE896"/>
<rect x="7.29297" y="147.016" width="3.33144" height="3.33928" fill="#FFE896"/>
<rect x="86.1406" y="128.093" width="3.33144" height="3.33928" fill="#F5C34C"/>
<rect x="80.5898" y="135.885" width="3.33144" height="3.33928" fill="#F5C34C"/>
<rect x="69.4844" y="135.885" width="3.33144" height="3.33928" fill="#F5C34C"/>
<rect x="80.5898" y="143.677" width="3.33144" height="3.33928" fill="#F5C34C"/>
<rect x="69.4844" y="150.355" width="3.33144" height="3.33928" fill="#F5C34C"/>
<rect x="69.4844" y="158.147" width="3.33144" height="3.33928" fill="#F5C34C"/>
<rect x="75.0391" y="158.147" width="3.33144" height="3.33928" fill="#F5C34C"/>
<rect x="86.1406" y="158.147" width="3.33144" height="3.33928" fill="#F5C34C"/>
<rect x="130.559" y="221.593" width="3.33144" height="3.33928" fill="#F5C34C"/>
<rect x="217.18" y="204.897" width="3.33144" height="3.33928" fill="#F5C34C"/>
<rect x="209.406" y="194.879" width="3.33144" height="3.33928" fill="#F5C34C"/>
<rect x="217.18" y="221.593" width="3.33144" height="3.33928" fill="#F5C34C"/>
<rect x="75.0391" y="164.825" width="3.33144" height="3.33928" fill="#F5C34C"/>
<rect x="69.4844" y="172.617" width="3.33144" height="3.33928" fill="#F5C34C"/>
<rect x="69.4844" y="179.296" width="3.33144" height="3.33928" fill="#F5C34C"/>
<rect x="69.4844" y="194.879" width="3.33144" height="3.33928" fill="#F5C34C"/>
<rect x="69.4844" y="209.349" width="3.33144" height="3.33928" fill="#F5C34C"/>
<rect x="69.4844" y="218.254" width="3.33144" height="3.33928" fill="#F5C34C"/>
<rect x="1.74219" y="161.486" width="3.33144" height="3.33928" fill="#FFE896"/>
<rect x="7.29297" y="161.486" width="3.33144" height="3.33928" fill="#FFE896"/>
<rect x="1.74219" y="168.165" width="3.33144" height="3.33928" fill="#FFE896"/>
<rect x="8.40234" y="175.956" width="3.33144" height="3.33928" fill="#FFE896"/>
<rect x="1.74219" y="183.748" width="3.33144" height="3.33928" fill="#FFE896"/>
<rect x="1.74219" y="198.218" width="3.33144" height="3.33928" fill="#FFE896"/>
<rect x="7.29297" y="198.218" width="3.33144" height="3.33928" fill="#FFE896"/>
<rect x="29.5039" y="163.712" width="5.5524" height="5.56546" fill="#F5C34C"/>
<rect x="29.5039" y="173.73" width="5.5524" height="5.56546" fill="#F5C34C"/>
<rect x="38.3906" y="173.73" width="5.5524" height="5.56546" fill="#F5C34C"/>
<rect x="53.9375" y="173.73" width="5.5524" height="5.56546" fill="#F5C34C"/>
<rect x="46.1641" y="182.635" width="5.5524" height="5.56546" fill="#F5C34C"/>
<rect x="38.3906" y="191.54" width="5.5524" height="5.56546" fill="#F5C34C"/>
<rect x="21.7344" y="213.801" width="5.5524" height="5.56546" fill="#F5C34C"/>
<rect x="46.1641" y="200.444" width="5.5524" height="5.56546" fill="#F5C34C"/>
<rect x="53.9375" y="191.54" width="5.5524" height="5.56546" fill="#F5C34C"/>
<rect x="90.5781" y="187.087" width="5.5524" height="5.56546" fill="#F5C34C"/>
<rect x="103.902" y="187.087" width="5.5524" height="5.56546" fill="#F5C34C"/>
<rect x="119.461" y="187.087" width="5.5524" height="5.56546" fill="#F5C34C"/>
<rect x="103.902" y="194.879" width="5.5524" height="5.56546" fill="#F5C34C"/>
<rect x="110.57" y="202.671" width="5.5524" height="5.56546" fill="#F5C34C"/>
<rect x="119.461" y="211.575" width="5.5524" height="5.56546" fill="#F5C34C"/>
<rect x="181.648" y="184.861" width="5.5524" height="5.56546" fill="#F5C34C"/>
<rect x="181.648" y="149.242" width="5.5524" height="5.56546" fill="#F5C34C"/>
<rect x="181.648" y="132.546" width="5.5524" height="5.56546" fill="#F5C34C"/>
<rect x="189.414" y="140.338" width="5.5524" height="5.56546" fill="#F5C34C"/>
<rect x="189.414" y="168.165" width="5.5524" height="5.56546" fill="#F5C34C"/>
<rect x="197.188" y="168.165" width="5.5524" height="5.56546" fill="#F5C34C"/>
<rect x="197.188" y="194.879" width="5.5524" height="5.56546" fill="#F5C34C"/>
<rect x="110.57" y="219.367" width="5.5524" height="5.56546" fill="#F5C34C"/>
<rect x="53.9375" y="209.349" width="5.5524" height="5.56546" fill="#F5C34C"/>
<rect x="53.9375" y="218.254" width="5.5524" height="5.56546" fill="#F5C34C"/>
<rect x="46.1641" y="218.254" width="5.5524" height="5.56546" fill="#F5C34C"/>
<rect x="53.9375" y="154.808" width="5.5524" height="5.56546" fill="#F5C34C"/>
<rect x="46.1641" y="154.808" width="5.5524" height="5.56546" fill="#F5C34C"/>
<rect x="46.1641" y="145.903" width="5.5524" height="5.56546" fill="#F5C34C"/>
<rect x="46.1641" y="129.206" width="5.5524" height="5.56546" fill="#F5C34C"/>
<rect x="53.9375" y="129.206" width="5.5524" height="5.56546" fill="#F5C34C"/>
<rect x="79.4766" y="198.218" width="7.77336" height="12.244" fill="#FFE896"/>
<rect x="79.4766" y="216.028" width="7.77336" height="12.244" fill="#FFE896"/>
<rect x="90.5781" y="216.028" width="7.77336" height="12.244" fill="#FFE896"/>
<rect x="152.777" y="220.48" width="7.77336" height="7.79165" fill="#F5C34C"/>
<rect x="167.211" y="220.48" width="7.77336" height="7.79165" fill="#FFE896"/>
<rect x="167.211" y="208.236" width="7.77336" height="7.79165" fill="#FFE896"/>
<rect x="167.211" y="195.992" width="7.77336" height="7.79165" fill="#FFE896"/>
<rect x="167.211" y="183.748" width="7.77336" height="7.79165" fill="#FFE896"/>
<rect x="167.211" y="172.311" width="7.77336" height="7.79165" fill="#FFE896"/>
<rect x="187.191" y="216.028" width="7.77336" height="7.79165" fill="#F5C34C"/>
<rect x="202.746" y="216.028" width="7.77336" height="7.79165" fill="#F5C34C"/>
<rect x="-48.2188" y="181.522" width="358.685" height="129.119" fill="url(#paint1_linear_1137_18)"/>
</g>
<path d="M181.744 180.147L53.0469 120.606H99.3495H132.304H149.084L181.744 180.147Z" fill="#4F8C58"/>
<path d="M181.744 180.147L53.0469 120.606H99.3495M181.744 180.147L149.084 120.606H132.304M181.744 180.147L132.304 120.606M181.744 180.147L99.3495 120.606M132.304 120.606H99.3495" stroke="#13134E" stroke-width="1.48685"/>
<path d="M149.199 59.9559L182.853 182.366L149.411 120.489L149.359 105.788L149.308 91.0873L149.244 72.7112L149.199 59.9559Z" fill="#70C87E"/>
<path d="M182.853 182.366L149.199 59.9559L149.244 72.7112M182.853 182.366L149.244 72.7112M182.853 182.366L149.308 91.0873M182.853 182.366L149.359 105.788M182.853 182.366L149.411 120.489L149.359 105.788M149.244 72.7112L149.308 91.0873M149.308 91.0873L149.359 105.788" stroke="#13134E" stroke-width="1.48685"/>
<path d="M148.028 68.5519H53.3359V119.413H148.028V68.5519Z" fill="#F5C34C" stroke="#FFE896" stroke-width="1.76"/>
<path d="M148.028 60.6952H53.3359V68.5517H148.028V60.6952Z" fill="#4F8C58" stroke="#FFE896" stroke-width="1.76"/>
<ellipse cx="57.8754" cy="64.4166" rx="1.65272" ry="1.65401" fill="#FFE896"/>
<ellipse cx="69.0434" cy="64.4166" rx="1.65272" ry="1.65401" fill="#FFE896"/>
<ellipse cx="63.6684" cy="64.4166" rx="1.65272" ry="1.65401" fill="#FFE896"/>
<path d="M71.5273 92.1212L86.7306 80.1296L89.7214 83.2579L79.0044 92.1212L89.7214 100.463L86.7306 104.113L71.5273 92.1212Z" fill="#4F8C58"/>
<path d="M132.309 92.5344L116.76 80.5428L113.701 83.6711L124.662 92.5344L113.701 100.876L116.76 104.526L132.309 92.5344Z" fill="#4F8C58"/>
<path d="M91.7891 104.94L105.554 78.4761H110.81L97.5455 104.94H91.7891Z" fill="#4F8C58"/>
</g>
<defs>
<linearGradient id="paint0_linear_1137_18" x1="112.515" y1="86.4973" x2="112.515" y2="294.365" gradientUnits="userSpaceOnUse">
<stop stop-color="#13134E"/>
<stop offset="1" stop-color="#01B0FC"/>
</linearGradient>
<linearGradient id="paint1_linear_1137_18" x1="131.679" y1="325.667" x2="131.679" y2="170.391" gradientUnits="userSpaceOnUse">
<stop stop-color="#13134E"/>
<stop offset="1" stop-color="#13134E" stop-opacity="0"/>
</linearGradient>
<clipPath id="clip0_1137_18">
<rect x="0.480469" width="223.52" height="223.52" rx="111.76" fill="white"/>
</clipPath>
</defs>
</svg>
