<svg width="407" height="407" viewBox="0 0 407 407" fill="none" xmlns="http://www.w3.org/2000/svg">
<g clip-path="url(#clip0_1023_485)">
<rect width="407" height="407" rx="203.5" fill="white"/>
<circle cx="203.5" cy="203.381" r="203.5" fill="url(#paint0_linear_1023_485)"/>
<path d="M327 328.382L153 247.882H215.601H260.156H282.843L327 328.382Z" fill="#942323"/>
<path d="M153 247.882V247.037L152.645 248.648L153 247.882ZM327 328.382L326.645 329.148L328.975 330.226L327.741 327.975L327 328.382ZM282.843 247.882L283.584 247.475L283.343 247.037H282.843V247.882ZM152.645 248.648L326.645 329.148L327.355 327.615L153.355 247.115L152.645 248.648ZM327.741 327.975L283.584 247.475L282.102 248.288L326.259 328.788L327.741 327.975ZM282.843 247.037H260.156V248.726H282.843V247.037ZM327.65 327.842L260.806 247.342L259.506 248.421L326.35 328.921L327.65 327.842ZM260.156 247.037H215.601V248.726H260.156V247.037ZM215.601 247.037H153V248.726H215.601V247.037ZM327.495 327.697L216.096 247.197L215.107 248.566L326.505 329.066L327.495 327.697Z" fill="#13134E"/>
<path d="M283 165.882L328.5 331.382L283.286 247.723L283.216 227.847L283.147 207.972L283.06 183.127L283 165.882Z" fill="#D74646"/>
<path d="M328.5 331.382L283 165.882L283.06 183.127M328.5 331.382L283.06 183.127M328.5 331.382L283.147 207.972M328.5 331.382L283.216 227.847M328.5 331.382L283.286 247.723L283.216 227.847M283.06 183.127L283.147 207.972M283.147 207.972L283.216 227.847" stroke="#13134E" stroke-width="1.6896"/>
<path d="M281.41 177.504H153.385V246.268H281.41V177.504Z" fill="#F5C34C" stroke="#FFE896" stroke-width="2"/>
<path d="M281.41 166.881H153.385V177.503H281.41V166.881Z" fill="#D74646" stroke="#FFE896" stroke-width="2"/>
<ellipse cx="159.533" cy="171.913" rx="2.2345" ry="2.23624" fill="#FFE896"/>
<ellipse cx="174.628" cy="171.913" rx="2.2345" ry="2.23624" fill="#FFE896"/>
<ellipse cx="167.36" cy="171.913" rx="2.2345" ry="2.23624" fill="#FFE896"/>
<path d="M177.984 209.37L198.539 193.157L202.583 197.386L188.093 209.37L202.583 220.648L198.539 225.582L177.984 209.37Z" fill="#D74646"/>
<path d="M260.166 209.928L239.143 193.715L235.008 197.945L249.827 209.928L235.008 221.206L239.143 226.141L260.166 209.928Z" fill="#D74646"/>
<path d="M205.378 226.701L223.989 190.921H231.095L213.16 226.701H205.378Z" fill="#D74646"/>
<mask id="mask0_1023_485" style="mask-type:alpha" maskUnits="userSpaceOnUse" x="28" y="282" width="337" height="126">
<path d="M30.7722 309.881H54.5928V326.467V327.422L55.5458 327.466L75.0001 328.38L76.047 328.429V327.381V321.631V283.881H111.459V327.381V328.381H112.459H127.673H128.673V327.381V295.381H172.316V348.881V349.881H173.316H202.245V378.381V379.381H203.245H235.669H236.669V378.381V309.881H245.147H246.147V308.881V298.881H253.627H254.627V297.881V286.881H258.613V297.881V298.881H259.613H267.093V308.881V309.881H268.093H274.575V340.881V341.881H275.575H302.512H303.512V340.881V328.381H334.437H335.437V327.381V301.767H364V327.044C327.074 375.584 266.152 408.37 203.269 406.881L203.257 406.881H203.245C149.657 406.881 98.7656 385.905 56.3108 343.358C46.692 333.144 38.1217 321.927 30.7722 309.881Z" fill="#C4C4C4" stroke="black" stroke-width="2"/>
</mask>
<g mask="url(#mask0_1023_485)">
<rect x="20.1763" y="286.881" width="354.167" height="153" fill="#13134E"/>
<rect x="50.1058" y="333.881" width="4.98826" height="5" fill="#F5C34C"/>
<rect x="64.073" y="333.881" width="4.98826" height="5" fill="#F5C34C"/>
<rect x="71.0565" y="340.881" width="4.98826" height="5" fill="#F5C34C"/>
<rect x="71.0565" y="348.881" width="4.98826" height="5" fill="#F5C34C"/>
<rect x="64.073" y="348.881" width="4.98826" height="5" fill="#F5C34C"/>
<rect x="92.0073" y="289.881" width="2.99296" height="3" fill="#FFE896"/>
<rect x="96.9955" y="289.881" width="2.99296" height="3" fill="#FFE896"/>
<rect x="86.0214" y="294.881" width="2.99296" height="3" fill="#FFE896"/>
<rect x="81.0331" y="294.881" width="2.99296" height="3" fill="#FFE896"/>
<rect x="81.0331" y="301.881" width="2.99296" height="3" fill="#FFE896"/>
<rect x="92.0073" y="301.881" width="2.99296" height="3" fill="#FFE896"/>
<rect x="96.9955" y="301.881" width="2.99296" height="3" fill="#FFE896"/>
<rect x="86.0214" y="307.881" width="2.99296" height="3" fill="#FFE896"/>
<rect x="81.0331" y="314.881" width="2.99296" height="3" fill="#FFE896"/>
<rect x="81.0331" y="320.881" width="2.99296" height="3" fill="#FFE896"/>
<rect x="86.0214" y="320.881" width="2.99296" height="3" fill="#FFE896"/>
<rect x="91.0096" y="320.881" width="2.99296" height="3" fill="#FFE896"/>
<rect x="95.9979" y="320.881" width="2.99296" height="3" fill="#FFE896"/>
<rect x="166.831" y="303.881" width="2.99296" height="3" fill="#F5C34C"/>
<rect x="161.843" y="310.881" width="2.99296" height="3" fill="#F5C34C"/>
<rect x="151.866" y="310.881" width="2.99296" height="3" fill="#F5C34C"/>
<rect x="161.843" y="317.881" width="2.99296" height="3" fill="#F5C34C"/>
<rect x="151.866" y="323.881" width="2.99296" height="3" fill="#F5C34C"/>
<rect x="151.866" y="330.881" width="2.99296" height="3" fill="#F5C34C"/>
<rect x="156.855" y="330.881" width="2.99296" height="3" fill="#F5C34C"/>
<rect x="166.831" y="330.881" width="2.99296" height="3" fill="#F5C34C"/>
<rect x="206.737" y="387.881" width="2.99296" height="3" fill="#F5C34C"/>
<rect x="284.554" y="372.881" width="2.99296" height="3" fill="#F5C34C"/>
<rect x="277.571" y="363.881" width="2.99296" height="3" fill="#F5C34C"/>
<rect x="284.554" y="387.881" width="2.99296" height="3" fill="#F5C34C"/>
<rect x="206.737" y="394.881" width="2.99296" height="3" fill="#F5C34C"/>
<rect x="156.855" y="336.881" width="2.99296" height="3" fill="#F5C34C"/>
<rect x="151.866" y="343.881" width="2.99296" height="3" fill="#F5C34C"/>
<rect x="151.866" y="349.881" width="2.99296" height="3" fill="#F5C34C"/>
<rect x="151.866" y="363.881" width="2.99296" height="3" fill="#F5C34C"/>
<rect x="151.866" y="376.881" width="2.99296" height="3" fill="#F5C34C"/>
<rect x="151.866" y="384.881" width="2.99296" height="3" fill="#F5C34C"/>
<rect x="81.0331" y="333.881" width="2.99296" height="3" fill="#FFE896"/>
<rect x="91.0096" y="333.881" width="2.99296" height="3" fill="#FFE896"/>
<rect x="95.9979" y="333.881" width="2.99296" height="3" fill="#FFE896"/>
<rect x="91.0096" y="339.881" width="2.99296" height="3" fill="#FFE896"/>
<rect x="86.0214" y="339.881" width="2.99296" height="3" fill="#FFE896"/>
<rect x="81.0331" y="346.881" width="2.99296" height="3" fill="#FFE896"/>
<rect x="96.9955" y="346.881" width="2.99296" height="3" fill="#FFE896"/>
<rect x="91.0096" y="353.881" width="2.99296" height="3" fill="#FFE896"/>
<rect x="86.0214" y="353.881" width="2.99296" height="3" fill="#FFE896"/>
<rect x="81.0331" y="359.881" width="2.99296" height="3" fill="#FFE896"/>
<rect x="91.0096" y="366.881" width="2.99296" height="3" fill="#FFE896"/>
<rect x="95.9979" y="366.881" width="2.99296" height="3" fill="#FFE896"/>
<rect x="115.951" y="335.881" width="4.98826" height="5" fill="#F5C34C"/>
<rect x="115.951" y="344.881" width="4.98826" height="5" fill="#F5C34C"/>
<rect x="123.932" y="344.881" width="4.98826" height="5" fill="#F5C34C"/>
<rect x="137.899" y="344.881" width="4.98826" height="5" fill="#F5C34C"/>
<rect x="130.916" y="352.881" width="4.98826" height="5" fill="#F5C34C"/>
<rect x="123.932" y="360.881" width="4.98826" height="5" fill="#F5C34C"/>
<rect x="108.967" y="380.881" width="4.98826" height="5" fill="#F5C34C"/>
<rect x="130.916" y="368.881" width="4.98826" height="5" fill="#F5C34C"/>
<rect x="137.899" y="360.881" width="4.98826" height="5" fill="#F5C34C"/>
<rect x="170.822" y="356.881" width="4.98826" height="5" fill="#F5C34C"/>
<rect x="182.794" y="356.881" width="4.98826" height="5" fill="#F5C34C"/>
<rect x="196.761" y="356.881" width="4.98826" height="5" fill="#F5C34C"/>
<rect x="182.794" y="363.881" width="4.98826" height="5" fill="#F5C34C"/>
<rect x="188.78" y="370.881" width="4.98826" height="5" fill="#F5C34C"/>
<rect x="196.761" y="378.881" width="4.98826" height="5" fill="#F5C34C"/>
<rect x="252.629" y="354.881" width="4.98826" height="5" fill="#F5C34C"/>
<rect x="252.629" y="322.881" width="4.98826" height="5" fill="#F5C34C"/>
<rect x="252.629" y="307.881" width="4.98826" height="5" fill="#F5C34C"/>
<rect x="259.613" y="314.881" width="4.98826" height="5" fill="#F5C34C"/>
<rect x="259.613" y="339.881" width="4.98826" height="5" fill="#F5C34C"/>
<rect x="266.596" y="339.881" width="4.98826" height="5" fill="#F5C34C"/>
<rect x="357.633" y="310.267" width="4.98826" height="5" fill="#F5C34C"/>
<rect x="348.633" y="327.267" width="4.98826" height="5" fill="#F5C34C"/>
<rect x="355.616" y="327.267" width="4.98826" height="5" fill="#F5C34C"/>
<rect x="266.596" y="363.881" width="4.98826" height="5" fill="#F5C34C"/>
<rect x="322.465" y="317.881" width="4.98826" height="5" fill="#FFE896"/>
<rect x="322.633" y="328.267" width="4.98826" height="5" fill="#FFE896"/>
<rect x="337.633" y="303.267" width="4.98826" height="5" fill="#FFE896"/>
<rect x="322.465" y="342.881" width="4.98826" height="5" fill="#FFE896"/>
<rect x="322.465" y="351.881" width="4.98826" height="5" fill="#FFE896"/>
<rect x="322.465" y="360.881" width="4.98826" height="5" fill="#FFE896"/>
<rect x="330.446" y="342.881" width="4.98826" height="5" fill="#FFE896"/>
<rect x="337.43" y="342.881" width="4.98826" height="5" fill="#FFE896"/>
<rect x="344.413" y="342.881" width="4.98826" height="5" fill="#FFE896"/>
<rect x="344.413" y="335.881" width="4.98826" height="5" fill="#FFE896"/>
<rect x="337.43" y="350.881" width="4.98826" height="5" fill="#FFE896"/>
<rect x="188.78" y="385.881" width="4.98826" height="5" fill="#F5C34C"/>
<rect x="182.794" y="393.881" width="4.98826" height="5" fill="#F5C34C"/>
<rect x="196.761" y="393.881" width="4.98826" height="5" fill="#F5C34C"/>
<rect x="182.794" y="400.881" width="4.98826" height="5" fill="#F5C34C"/>
<rect x="137.899" y="376.881" width="4.98826" height="5" fill="#F5C34C"/>
<rect x="137.899" y="384.881" width="4.98826" height="5" fill="#F5C34C"/>
<rect x="130.916" y="384.881" width="4.98826" height="5" fill="#F5C34C"/>
<rect x="137.899" y="392.881" width="4.98826" height="5" fill="#F5C34C"/>
<rect x="137.899" y="327.881" width="4.98826" height="5" fill="#F5C34C"/>
<rect x="130.916" y="327.881" width="4.98826" height="5" fill="#F5C34C"/>
<rect x="130.916" y="319.881" width="4.98826" height="5" fill="#F5C34C"/>
<rect x="130.916" y="304.881" width="4.98826" height="5" fill="#F5C34C"/>
<rect x="137.899" y="304.881" width="4.98826" height="5" fill="#F5C34C"/>
<rect x="160.845" y="366.881" width="6.98357" height="11" fill="#FFE896"/>
<rect x="160.845" y="382.881" width="6.98357" height="11" fill="#FFE896"/>
<rect x="170.822" y="382.881" width="6.98357" height="11" fill="#FFE896"/>
<rect x="226.69" y="386.881" width="6.98357" height="7" fill="#F5C34C"/>
<rect x="239.66" y="386.881" width="6.98357" height="7" fill="#FFE896"/>
<rect x="239.66" y="375.881" width="6.98357" height="7" fill="#FFE896"/>
<rect x="239.66" y="364.881" width="6.98357" height="7" fill="#FFE896"/>
<rect x="239.66" y="353.881" width="6.98357" height="7" fill="#FFE896"/>
<rect x="239.66" y="332.881" width="6.98357" height="7" fill="#FFE896"/>
<rect x="257.618" y="382.881" width="6.98357" height="7" fill="#F5C34C"/>
<rect x="257.618" y="394.881" width="6.98357" height="7" fill="#F5C34C"/>
<rect x="271.585" y="382.881" width="6.98357" height="7" fill="#F5C34C"/>
<rect x="296.526" y="372.881" width="6.98357" height="7" fill="#F5C34C"/>
<rect x="296.526" y="357.881" width="6.98357" height="7" fill="#F5C34C"/>
<rect x="46.1152" y="351.881" width="322.242" height="116" fill="url(#paint1_linear_1023_485)"/>
</g>
<path d="M87.0172 170.879L90.4342 164.373L103.996 168.651L93.4618 158.608L96.8709 152.117L111.005 155.307L99.9065 146.338L103.308 139.862L122.811 156.606L119.283 163.323L103.345 159.747L115.207 171.085L111.678 177.803L87.0172 170.879Z" fill="#FFE896"/>
<path d="M106.414 135.264L120.773 120.288L124.596 124.03L115.607 133.405L118.452 136.191L126.791 127.494L130.442 131.069L122.104 139.765L125.633 143.22L134.883 133.574L138.937 137.542L124.318 152.789L106.414 135.264Z" fill="#FFE896"/>
<path d="M126.217 115.825L137.973 107.35C139.932 105.938 141.779 105.344 143.513 105.568C145.257 105.786 146.638 106.617 147.656 108.059C148.51 109.269 148.868 110.577 148.731 111.982C148.639 112.919 148.231 113.902 147.506 114.93C149.216 114.231 150.718 114.068 152.013 114.44C153.311 114.797 154.42 115.627 155.339 116.93C156.088 117.991 156.517 119.122 156.625 120.322C156.733 121.522 156.536 122.675 156.034 123.782C155.724 124.468 155.087 125.265 154.122 126.171C152.84 127.376 151.967 128.145 151.505 128.478L140.664 136.293L126.217 115.825ZM138.219 119.286L140.95 117.317C141.93 116.611 142.491 115.954 142.633 115.346C142.778 114.721 142.624 114.088 142.171 113.446C141.75 112.85 141.228 112.525 140.603 112.469C139.988 112.407 139.204 112.72 138.252 113.406L135.479 115.404L138.219 119.286ZM143.895 127.328L147.098 125.02C148.179 124.24 148.807 123.5 148.981 122.798C149.149 122.088 149.003 121.406 148.543 120.755C148.116 120.15 147.552 119.826 146.853 119.783C146.155 119.723 145.257 120.09 144.157 120.883L140.968 123.181L143.895 127.328Z" fill="#FFE896"/>
<path d="M150.998 98.0515L161.653 93.7204C163.753 92.8666 165.561 92.4639 167.075 92.5123C168.601 92.5563 169.998 92.9415 171.267 93.6676C172.537 94.3938 173.643 95.3891 174.587 96.6535C175.53 97.9179 176.317 99.3442 176.948 100.932C177.937 103.421 178.42 105.469 178.396 107.077C178.38 108.67 178.055 110.137 177.422 111.476C176.786 112.805 175.953 113.857 174.925 114.631C173.52 115.694 172.18 116.485 170.902 117.004L160.248 121.335L150.998 98.0515ZM160.264 100.409L165.318 113.131L167.076 112.417C168.574 111.807 169.575 111.21 170.078 110.624C170.577 110.028 170.842 109.244 170.872 108.272C170.899 107.29 170.542 105.867 169.802 104.004C168.822 101.536 167.75 100.011 166.586 99.4261C165.422 98.8416 163.911 98.9269 162.053 99.682L160.264 100.409Z" fill="#FFE896"/>
<path d="M178.311 88.3576L198.817 85.1992L199.605 90.4899L186.768 92.4672L187.355 96.4056L199.263 94.5715L200.016 99.6255L188.108 101.46L188.836 106.345L202.044 104.31L202.88 109.922L182.003 113.138L178.311 88.3576Z" fill="#FFE896"/>
<path d="M202.247 84.82L210.304 85.659L214.024 104.174L221.437 86.8185L229.256 87.6327L217.385 111.586L209.039 110.717L202.247 84.82Z" fill="#FFE896"/>
<path d="M33.0833 192.564L38.0032 166.223L45.4034 167.65L42.4822 183.291L48.4963 184.451L50.9914 171.092L57.9452 172.433L55.4501 185.792L69.5222 188.507L67.5235 199.208L33.0833 192.564Z" fill="#FFE896"/>
<path d="M48.4395 138.483L52.323 128.389L71.7807 136.049C73.7102 136.809 75.4183 137.833 76.9051 139.121C78.3828 140.388 79.5181 141.924 80.311 143.727C81.0948 145.51 81.4743 147.211 81.4496 148.829C81.4208 151.081 80.8765 153.583 79.8169 156.337C79.204 157.93 78.4225 159.628 77.4724 161.431C76.528 163.219 75.4859 164.617 74.346 165.626C73.1912 166.628 71.802 167.418 70.1782 167.996C68.5602 168.559 67.0312 168.78 65.591 168.658C63.2726 168.466 61.3119 168.054 59.709 167.423L40.2513 159.763L44.1349 149.67L64.0601 157.514C65.8411 158.215 67.4252 158.273 68.8125 157.688C70.1907 157.082 71.2178 155.9 71.8937 154.144C72.5638 152.402 72.5982 150.847 71.9967 149.479C71.386 148.09 70.1754 147.039 68.3647 146.326L48.4395 138.483Z" fill="#FFE896"/>
<path d="M56.8269 119.476L62.9318 110.521L84.6365 125.617L94.1646 111.64L101.255 116.572L85.6223 139.504L56.8269 119.476Z" fill="#FFE896"/>
<path d="M79.6745 89.0663L87.3665 81.4307L105.797 100.385L117.802 88.4683L123.824 94.6607L104.127 114.213L79.6745 89.0663Z" fill="#FFE896"/>
<path d="M121.211 85.6366L129.983 80.1651C130.96 81.5405 131.956 82.4533 132.968 82.9034C134.613 83.6286 136.347 83.4985 138.172 82.5132C139.533 81.778 140.411 80.8959 140.806 79.8668C141.208 78.8161 141.186 77.8674 140.739 77.0209C140.315 76.2166 139.585 75.6865 138.548 75.4306C137.512 75.1746 135.568 75.4541 132.716 76.2692C128.035 77.5825 124.391 77.9374 121.783 77.3338C119.16 76.7378 117.209 75.2263 115.93 72.7995C115.089 71.2051 114.753 69.4562 114.922 67.5525C115.096 65.6273 115.891 63.766 117.306 61.9689C118.727 60.1501 121.044 58.3728 124.258 56.6372C128.202 54.5074 131.596 53.6262 134.44 53.9935C137.291 54.3392 139.761 56.0144 141.85 59.0191L133.14 64.4028C132.165 63.1348 131.124 62.3917 130.017 62.1737C128.925 61.948 127.705 62.199 126.357 62.9266C125.249 63.5254 124.54 64.2162 124.231 64.9991C123.916 65.7679 123.936 66.4909 124.293 67.1682C124.554 67.662 125.02 67.9814 125.691 68.1264C126.356 68.293 127.623 68.0979 129.493 67.5411C134.138 66.1931 137.604 65.4996 139.891 65.4607C142.185 65.4001 144.1 65.8343 145.636 66.7633C147.185 67.6847 148.406 68.992 149.299 70.6852C150.348 72.6746 150.768 74.8044 150.558 77.0746C150.349 79.3449 149.492 81.4479 147.989 83.3838C146.478 85.3056 144.227 87.0737 141.238 88.6881C135.989 91.5227 131.818 92.4699 128.726 91.5296C125.634 90.5892 123.129 88.6249 121.211 85.6366Z" fill="#FFE896"/>
<path d="M141.963 47.7297L172.577 39.8934L174.573 47.9577L164.302 50.5869L170.389 75.1806L160.318 77.7586L154.231 53.1648L143.959 55.794L141.963 47.7297Z" fill="#FFE896"/>
<path d="M201.551 66.1994L189.247 67.2134L188.001 73.1257L176.961 74.0356L187.391 37.9823L199.17 37.0116L215.017 70.8992L203.715 71.8307L201.551 66.1994ZM198.7 58.8243L193.863 46.5714L190.998 59.459L198.7 58.8243Z" fill="#FFE896"/>
<path d="M240.763 61.2449L249.796 65.3443C248.809 67.9001 247.516 69.9727 245.918 71.5622C244.321 73.1516 242.45 74.2621 240.305 74.8937C238.176 75.5273 235.554 75.6368 232.439 75.222C228.66 74.7187 225.642 73.7616 223.386 72.3508C221.147 70.9263 219.344 68.7149 217.976 65.7168C216.609 62.7187 216.215 59.0618 216.795 54.7461C217.568 48.9918 219.688 44.7766 223.153 42.1003C226.637 39.4104 231.177 38.4381 236.774 39.1835C241.154 39.7668 244.474 41.11 246.734 43.2133C249.01 45.3186 250.511 48.2861 251.235 52.1158L241.465 52.9629C241.275 51.8595 241.032 51.0385 240.734 50.5C240.243 49.598 239.593 48.8677 238.783 48.3093C237.973 47.7508 237.03 47.4 235.955 47.2568C233.52 46.9326 231.523 47.6642 229.963 49.4518C228.787 50.7756 227.99 52.9947 227.572 56.1089C227.054 59.9662 227.283 62.692 228.259 64.2864C229.238 65.865 230.787 66.7954 232.906 67.0775C234.961 67.3513 236.588 66.9806 237.787 65.9656C239.001 64.9526 239.993 63.3791 240.763 61.2449Z" fill="#FFE896"/>
<path d="M262.208 46.8772L272.194 51.0907L267.072 63.3161L282.665 55.5088L295.935 61.1082L279.051 68.3446L282.911 93.6823L270.61 88.4922L269.374 72.3114L261.95 75.5414L258.641 83.4416L248.655 79.2281L262.208 46.8772Z" fill="#FFE896"/>
</g>
<defs>
<linearGradient id="paint0_linear_1023_485" x1="204" y1="157.381" x2="204" y2="535.881" gradientUnits="userSpaceOnUse">
<stop stop-color="#13134E"/>
<stop offset="1" stop-color="#01B0FC"/>
</linearGradient>
<linearGradient id="paint1_linear_1023_485" x1="207.735" y1="481.381" x2="207.735" y2="341.881" gradientUnits="userSpaceOnUse">
<stop stop-color="#13134E"/>
<stop offset="1" stop-color="#13134E" stop-opacity="0"/>
</linearGradient>
<clipPath id="clip0_1023_485">
<rect width="407" height="407" rx="203.5" fill="white"/>
</clipPath>
</defs>
</svg>
